<?xml version="1.0" encoding="UTF-8"?>
<svg version="1.1" xmlns="http://www.w3.org/2000/svg" width="512" height="512">
<path d="M0 0 C0.55719727 0.44504883 1.11439453 0.89009766 1.68847656 1.34863281 C9.78610737 7.87184715 16.7863373 14.5984279 23 23 C23.58910156 23.763125 24.17820312 24.52625 24.78515625 25.3125 C37.96058324 43.07981839 48.78520049 67.44729713 48 90 C49.07894531 89.96519531 50.15789062 89.93039063 51.26953125 89.89453125 C86.70640493 89.10713399 118.35674345 101.51812283 144 126 C144.5878125 126.52464844 145.175625 127.04929688 145.78125 127.58984375 C161.49664903 142.15623954 171.36147916 162.6543373 177 183 C177.3403125 184.18851563 177.680625 185.37703125 178.03125 186.6015625 C185.51476887 218.4065177 179.06215564 253.40765839 162 281 C142.23280786 310.29905882 114.19250058 329.83881443 79.625 337.25 C78.08655255 337.51910137 76.54479951 337.77015094 75 338 C74.27554687 338.11085938 73.55109375 338.22171875 72.8046875 338.3359375 C51.13717186 341.05355811 26.74973924 338.87486962 7 329 C7 353.75 7 378.5 7 404 C15.58128906 403.95359375 24.16257812 403.9071875 33.00390625 403.859375 C39.13224302 403.83633711 45.26054724 403.81583231 51.3888998 403.79898453 C59.32682815 403.77682465 67.26458824 403.74869767 75.20239258 403.69824219 C81.48740491 403.65831156 87.77229025 403.63255236 94.05742592 403.62364602 C97.38392442 403.61844166 100.70997599 403.60413964 104.03637886 403.57707977 C107.75437065 403.54803764 111.47161027 403.54404453 115.18969727 403.54589844 C116.28661896 403.53151733 117.38354065 403.51713623 118.51370239 403.50231934 C124.91425326 403.53684666 128.79516674 404.18748672 134 408 C138.16548383 412.49433781 139.11997894 415.72235603 139.17700195 421.75317383 C139.18983719 422.9348262 139.20267242 424.11647858 139.21589661 425.3339386 C139.22697701 427.25111946 139.22697701 427.25111946 139.23828125 429.20703125 C139.246353 430.52031906 139.25442474 431.83360687 139.26274109 433.18669128 C139.2777545 435.96829092 139.28759893 438.74986514 139.29516602 441.53149414 C139.30622345 445.08579985 139.34062072 448.6394783 139.38033772 452.19356251 C139.4128466 455.59385989 139.41728603 458.99409049 139.42578125 462.39453125 C139.44328934 463.66657913 139.46079742 464.93862701 139.47883606 466.2492218 C139.45188587 477.22165945 139.45188587 477.22165945 135 482 C130.26957656 486.16727779 127.91315077 487.12478008 121.64865494 487.13422108 C120.98630234 487.13657331 120.32394975 487.13892554 119.64152586 487.14134905 C117.40034434 487.14805778 115.15922053 487.14758026 112.91802979 487.14717102 C111.30365718 487.15046848 109.68928541 487.1541938 108.07491469 487.1583125 C103.6215989 487.16835402 99.16829658 487.17205274 94.71497107 487.17470181 C89.91865812 487.17859849 85.12235591 487.18817724 80.3260498 487.19691467 C68.73461687 487.21669696 57.14318303 487.22674746 45.55173743 487.23564246 C40.09733436 487.24002241 34.64293227 487.24538997 29.18852997 487.25063133 C11.06410549 487.26764526 -7.06031837 487.28214041 -25.1847496 487.28938007 C-29.89041901 487.29129007 -34.59608842 487.29321038 -39.30175781 487.29516602 C-40.47137394 487.29564976 -41.64099006 487.2961335 -42.8460491 487.2966319 C-61.80175432 487.30493582 -80.7573965 487.33027814 -99.71307418 487.36274669 C-119.16068116 487.39578714 -138.60825607 487.4138261 -158.05589128 487.41702431 C-168.98061673 487.41919219 -179.90525027 487.42798139 -190.82994843 487.45348549 C-200.13218834 487.47515132 -209.43431401 487.48326324 -218.73657629 487.47351871 C-223.48464757 487.46896205 -228.23248295 487.47093924 -232.98052216 487.49028015 C-237.3256845 487.50782747 -241.67043739 487.50698312 -246.01560357 487.49138286 C-247.58899635 487.4889939 -249.16241686 487.49339665 -250.7357671 487.50521151 C-252.87277465 487.5202673 -255.00831945 487.510704 -257.14529037 487.49498463 C-258.33273086 487.49596144 -259.52017135 487.49693824 -260.74359488 487.49794465 C-266.04617036 486.68711522 -269.09274011 484.17698581 -272.3125 480 C-275.17870837 474.90451845 -275.1530634 470.33561968 -275.16113281 464.57885742 C-275.16858017 463.30737602 -275.16858017 463.30737602 -275.17617798 462.01020813 C-275.1907714 459.20862004 -275.19759693 456.40708859 -275.203125 453.60546875 C-275.2088788 451.65497334 -275.2146365 449.70447793 -275.22039795 447.75398254 C-275.23089993 443.66435483 -275.23674784 439.57474672 -275.24023438 435.48510742 C-275.24571721 430.25295647 -275.26974421 425.021066 -275.29820633 419.7889967 C-275.31685923 415.75945791 -275.32203973 411.72998153 -275.32357025 407.70040321 C-275.32659134 405.77195118 -275.33460147 403.8435001 -275.34775543 401.91509056 C-275.36487128 399.21296927 -275.3629222 396.51148015 -275.35644531 393.80932617 C-275.3656601 393.01791229 -275.37487488 392.22649841 -275.3843689 391.41110229 C-275.3356215 384.89627319 -273.92134398 380.27527577 -269.625 375.1875 C-265.58151299 371.81792749 -262.10353506 370.74846138 -256.88102722 370.75949097 C-255.87286957 370.75674164 -254.86471191 370.75399231 -253.82600403 370.75115967 C-252.73124252 370.75835022 -251.63648102 370.76554077 -250.50854492 370.77294922 C-248.76643738 370.77251114 -248.76643738 370.77251114 -246.98913574 370.77206421 C-243.15283724 370.7734568 -239.3167333 370.78901502 -235.48046875 370.8046875 C-232.81960216 370.80841788 -230.15874633 370.81136313 -227.49787903 370.81326294 C-221.21167787 370.81947325 -214.92554646 370.83587796 -208.63937598 370.85596192 C-201.4810022 370.87833491 -194.32262504 370.88931787 -187.16422498 370.89935279 C-172.44277613 370.92024461 -157.72140214 370.95691523 -143 371 C-143 354.5 -143 338 -143 321 C-150.425 324.96 -150.425 324.96 -158 329 C-161.42927989 330.41323351 -164.67994482 331.69357963 -168.1875 332.8125 C-169.50778198 333.23994507 -169.50778198 333.23994507 -170.85473633 333.67602539 C-203.03313124 343.63156588 -237.24690863 339.88051603 -267.109375 324.671875 C-295.43622171 309.57736813 -317.64513391 282.96084448 -327.23120117 252.34326172 C-330.9308211 239.95507668 -332.39265301 227.94206375 -332.375 215 C-332.37445618 214.32290985 -332.37391235 213.6458197 -332.37335205 212.94821167 C-332.24790445 178.82295037 -319.23395889 150.70501029 -296 126 C-295.46246094 125.39800781 -294.92492187 124.79601562 -294.37109375 124.17578125 C-275.29977028 103.67052368 -245.54047317 92.02644776 -218 90 C-214.81047122 89.89865231 -211.62816373 89.90336121 -208.4375 89.9375 C-207.61958984 89.94201172 -206.80167969 89.94652344 -205.95898438 89.95117188 C-203.97262353 89.96278802 -201.9863012 89.98071552 -200 90 C-199.97421875 89.33097656 -199.9484375 88.66195312 -199.921875 87.97265625 C-198.38430444 61.93879115 -187.52296019 37.89120408 -171 18 C-170.33097656 17.17757812 -169.66195312 16.35515625 -168.97265625 15.5078125 C-163.93124232 9.54884062 -158.16711385 4.75700242 -152 0 C-151.14664063 -0.680625 -150.29328125 -1.36125 -149.4140625 -2.0625 C-106.85927193 -34.77729395 -41.6934672 -33.46900244 0 0 Z M-84 223 C-84.30292969 224.63066406 -84.60585937 226.26132813 -84.91796875 227.94140625 C-90.4844033 257.28270128 -100.2118327 280.30846704 -120.6015625 302.390625 C-122.10931775 303.7704623 -122.10931775 303.7704623 -122 305 C-91.64 305 -61.28 305 -30 305 C-34.4711263 299.03410525 -34.4711263 299.03410525 -39.3125 293.375 C-56.88542402 273.44095623 -63.87222785 248.63563754 -68 223 C-73.28 223 -78.56 223 -84 223 Z " fill="#020201" transform="translate(332,25)"/>
<path d="M0 0 C14.14072783 11.00491789 26.58082864 28.66074207 28.86328125 46.8671875 C29.85632621 61.12076216 29.76020584 75.66670883 23.73828125 88.8671875 C23.43116211 89.54869873 23.12404297 90.23020996 22.80761719 90.93237305 C14.34763195 109.04109523 -0.59784511 122.72538692 -19.26171875 129.7421875 C-40.08615667 136.55370519 -61.14002013 135.35320248 -80.828125 125.5234375 C-87.38279535 121.83066547 -92.78240105 117.1187023 -98.13671875 111.8671875 C-99.29880859 110.75923828 -99.29880859 110.75923828 -100.484375 109.62890625 C-114.90120782 94.91532901 -119.45681285 75.83267056 -119.52172852 55.84814453 C-119.2492702 37.18254111 -110.98050669 20.32551075 -98.13671875 6.8671875 C-70.23232928 -18.99442089 -31.39876495 -21.34959609 0 0 Z " fill="#FAD56F" transform="translate(301.13671875,64.1328125)"/>
<path d="M0 0 C1.38638672 -0.05220703 1.38638672 -0.05220703 2.80078125 -0.10546875 C5.58767805 0.02449017 6.76651386 0.29284768 9 2 C11.79145916 6.45023008 13.88961403 11.10267061 16.02050781 15.89453125 C25.08211618 35.3729237 40.71977985 51.04779353 58.43359375 62.72265625 C59.04372314 63.12492432 59.65385254 63.52719238 60.2824707 63.94165039 C62.15653895 65.14196626 62.15653895 65.14196626 64.9453125 66.375 C67 68 67 68 67.55859375 71.15234375 C67.43185491 75.11395454 67.28021999 79.04578454 67 83 C66.9278125 84.0209375 66.855625 85.041875 66.78125 86.09375 C64.79633405 102.51441835 54.78811245 120.56567675 42 131 C29.59374356 140.58437577 14.94104768 148.13002308 -1 149 C-2.74603516 149.09667969 -2.74603516 149.09667969 -4.52734375 149.1953125 C-23.76875815 149.91157094 -42.66990228 142.9722054 -57 130 C-57.66 129.43152344 -58.32 128.86304688 -59 128.27734375 C-71.04140151 117.20019509 -80.16542296 99.89012615 -81.15332031 83.44824219 C-82.14106514 59.26857007 -77.30967039 41.07462025 -60.94140625 22.6875 C-44.59333022 5.43605435 -23.14407292 -1.04461713 0 0 Z " fill="#E4E7EB" transform="translate(131,165)"/>
<path d="M0 0 C2.19621476 1.64621929 4.2431422 3.36558671 6.27734375 5.20703125 C7.26734375 6.05974609 7.26734375 6.05974609 8.27734375 6.9296875 C19.716562 17.4528746 29.33129291 34.35828841 30.48266602 49.99560547 C30.58179399 53.15198208 30.59934392 56.29917373 30.58984375 59.45703125 C30.60595703 60.51277344 30.62207031 61.56851563 30.63867188 62.65625 C30.65101514 82.82514206 22.08113082 100.05647961 8.33984375 114.51953125 C-6.56230913 128.66196654 -25.33039955 135.77401251 -45.8034668 135.56103516 C-66.45672659 134.85050456 -85.07133956 125.52197093 -99.31787109 110.78417969 C-109.27240922 99.60824707 -116.50424797 84.10379664 -117.72265625 69.20703125 C-117.90441406 68.04171875 -118.08617187 66.87640625 -118.2734375 65.67578125 C-118.6887308 61.48089939 -118.76840203 58.30176578 -117.72265625 54.20703125 C-114.05263335 50.64571143 -110.04069051 48.49102085 -105.51757812 46.17480469 C-86.84415505 36.10659888 -73.96954183 16.33279344 -64.6328125 -1.98046875 C-64.30039551 -2.62628906 -63.96797852 -3.27210938 -63.62548828 -3.9375 C-62.79683042 -5.64052859 -62.09447232 -7.40350559 -61.40625 -9.16796875 C-59.72265625 -11.79296875 -59.72265625 -11.79296875 -56.5625 -13.14453125 C-36.16339901 -16.58934383 -17.09284902 -11.25626643 0 0 Z " fill="#E3E6EA" transform="translate(431.72265625,178.79296875)"/>
<path d="M0 0 C3.0302938 1.35927977 5.15249174 2.89281169 7.51171875 5.22119141 C8.17921143 5.87592438 8.8467041 6.53065735 9.53442383 7.20523071 C10.24493896 7.9135202 10.9554541 8.62180969 11.6875 9.3515625 C12.42701904 10.08442474 13.16653809 10.81728699 13.9284668 11.57235718 C15.4910816 13.12485216 17.05099602 14.68006918 18.60839844 16.23779297 C20.98079838 18.60583366 23.36869411 20.957437 25.7578125 23.30859375 C27.27702254 24.82193262 28.79528289 26.33622559 30.3125 27.8515625 C31.02301514 28.5477066 31.73353027 29.24385071 32.46557617 29.96109009 C38.82834065 36.3825095 42.5723066 42.17026644 42.5625 51.4375 C42.30452795 60.08816287 39.94601481 65.47534498 33.6875 71.375 C27.015977 76.55118164 20.33798948 77.77011626 12 77 C11.01 76.67 10.02 76.34 9 76 C9 81.94 9 87.88 9 94 C3.72 94 -1.56 94 -7 94 C-7 88.06 -7 82.12 -7 76 C-8.485 76.495 -8.485 76.495 -10 77 C-18.09935265 77.94335222 -24.27622488 76.67125429 -31 72 C-36.5919186 67.13951379 -39.44270431 61.47694204 -40.3515625 54.17578125 C-40.75996941 45.78194446 -38.51264829 39.36249885 -33.19674683 32.76046753 C-31.13820886 30.56518299 -29.02088212 28.45706234 -26.85546875 26.3671875 C-26.08568192 25.6044754 -25.31589508 24.84176331 -24.52278137 24.05593872 C-22.08928597 21.65017304 -19.63890618 19.26249839 -17.1875 16.875 C-15.52293508 15.2355453 -13.85951193 13.5949305 -12.19726562 11.953125 C-8.14460628 7.95525048 -4.077979 3.97203563 0 0 Z " fill="#020202" transform="translate(387,187)"/>
<path d="M0 0 C2.8042763 -0.20030545 4.68702578 -0.85639362 7.23046875 -2.0234375 C14.30795908 -4.51902647 22.71016369 -4.06968549 29.5 -0.9375 C36.25647051 3.00100087 40.77404901 8.45649942 43 16 C44.09470319 24.58733839 42.76761429 30.82223248 38 38 C31.10040202 46.41570375 23.15096545 53.96775978 15.4375 61.625 C14.22567574 62.8317946 13.01408566 64.03882439 11.80273438 65.24609375 C8.87117529 68.16677407 5.93648979 71.08427747 3 74 C0.02423836 72.65900309 -2.08460589 71.17447344 -4.40405273 68.88647461 C-5.04829697 68.25499008 -5.6925412 67.62350555 -6.35630798 66.97288513 C-7.04181229 66.28960648 -7.72731659 65.60632782 -8.43359375 64.90234375 C-9.14854507 64.19404922 -9.8634964 63.4857547 -10.60011292 62.7559967 C-12.11145293 61.2547766 -13.62009284 59.750834 -15.1262207 58.24438477 C-17.41521014 55.95974748 -19.71966886 53.69156111 -22.02539062 51.42382812 C-23.49577324 49.95931818 -24.96520498 48.49385281 -26.43359375 47.02734375 C-27.11707382 46.35823471 -27.80055389 45.68912567 -28.50474548 44.9997406 C-33.91038399 39.54272353 -38.37688125 33.84321066 -39.62890625 26.12109375 C-39.45135616 16.27228585 -38.3500917 10.48233819 -31.75 3.1875 C-22.84141957 -5.04447938 -10.57981458 -5.06949449 0 0 Z " fill="#040303" transform="translate(122,210)"/>
<path d="M0 0 C5.28 0 10.56 0 16 0 C15.979375 1.24136719 15.95875 2.48273438 15.9375 3.76171875 C15.54911891 12.40228376 15.54911891 12.40228376 18.63671875 20.02734375 C20.67329694 21.1639161 20.67329694 21.1639161 22.86328125 22.0078125 C27.3981752 24.11359506 29.9710917 28.9595636 32.15625 33.29296875 C33.83284392 38.67204091 33.1041861 44.42604362 33 50 C27.39 50 21.78 50 16 50 C15.8046875 46.97265625 15.609375 43.9453125 15.4140625 40.91796875 C15.18804267 37.81373814 15.18804267 37.81373814 13 35 C9.89188713 34.19458793 9.89188713 34.19458793 6.375 33.8125 C4.59222656 33.57466797 4.59222656 33.57466797 2.7734375 33.33203125 C1.85820312 33.22246094 0.94296875 33.11289063 0 33 C-0.07426445 40.74874361 -0.07426445 40.74874361 2.875 47.625 C6.64322851 49.28302054 10.23487491 49.8209468 14.28515625 50.45703125 C20.53007633 51.70601527 24.55943691 55.19114451 28.640625 59.92578125 C32.19291292 65.34608265 33.37615063 69.78563436 33.29296875 76.24609375 C33.28872391 76.90207047 33.28447906 77.55804718 33.28010559 78.23390198 C33.26348779 80.30220911 33.22587238 82.36949401 33.1875 84.4375 C33.17243111 85.85089725 33.15874659 87.26430998 33.14648438 88.67773438 C33.11620766 92.11918763 33.05746529 95.55846762 33 99 C27.39 99 21.78 99 16 99 C16 104.61 16 110.22 16 116 C10.72 116 5.44 116 0 116 C0 109.73 0 103.46 0 97 C-1.65 96.67 -3.3 96.34 -5 96 C-11.39818617 92.052183 -14.64127435 86.04341687 -17 79 C-17.45722908 74.52296524 -17.29462107 70.51752313 -17 66 C-11.39 66 -5.78 66 0 66 C0.22786458 69.02734375 0.45572917 72.0546875 0.68359375 75.08203125 C0.90212461 78.05989905 0.90212461 78.05989905 2 81 C6.62 81.66 11.24 82.32 16 83 C15.87625 81.081875 15.7525 79.16375 15.625 77.1875 C15.52058594 75.56908203 15.52058594 75.56908203 15.4140625 73.91796875 C15.18804267 70.81373814 15.18804267 70.81373814 13 68 C9.96512398 67.19212188 9.96512398 67.19212188 6.4375 66.6875 C-2.51323436 64.91752896 -8.76066087 61.53582907 -14.02734375 54.00390625 C-17.72317713 46.38959893 -17.23416669 38.88016218 -17.125 30.5625 C-17.11597656 29.25861328 -17.10695312 27.95472656 -17.09765625 26.61132812 C-17.07418478 23.40747269 -17.03831682 20.20371228 -17 17 C-11.39 17 -5.78 17 0 17 C0 11.39 0 5.78 0 0 Z " fill="#040302" transform="translate(248,66)"/>
<path d="M0 0 C3.62134322 1.52987504 5.93574017 3.69117222 8.6953125 6.46484375 C9.57574219 7.34720703 10.45617187 8.22957031 11.36328125 9.13867188 C12.27464844 10.06228516 13.18601562 10.98589844 14.125 11.9375 C15.04410156 12.85724609 15.96320313 13.77699219 16.91015625 14.72460938 C25.86263542 23.7362459 25.86263542 23.7362459 26.3125 27.875 C25.95659791 31.4340209 25.18611509 33.1892806 23 36 C20.52871252 37.94172588 18.9743083 38.00151128 15.8125 38.1875 C10.78535247 36.62166716 8.50797785 33.75521422 5.11328125 29.8359375 C3.20852989 27.77316856 3.20852989 27.77316856 0.94921875 28.01171875 C-1.36472853 29.18492248 -2.750453 30.52492703 -4.5 32.4375 C-6.83290461 34.97718479 -8.7605579 36.73845601 -12 38 C-16.63559686 38 -18.48024084 37.45478927 -22 34.375 C-24 31 -24 31 -24.25 27.625 C-21.45879476 19.53050481 -13.54899434 13.41529176 -7.5625 7.5 C-6.83095703 6.77296875 -6.09941406 6.0459375 -5.34570312 5.296875 C-3.56610176 3.52890501 -1.78419082 1.76333622 0 0 Z " fill="#F77E6A" transform="translate(387,210)"/>
<path d="M0 0 C4.79189362 2.59560904 8.2738421 6.09640601 12 10 C15.18559952 8.60366893 17.23943845 6.95442507 19.625 4.4375 C23.74400646 0.11164387 23.74400646 0.11164387 27.8125 -0.25 C31.39154719 0.03070958 33.14250017 0.87728584 36 3 C37.89481118 6.78962235 38.11891957 10.00479042 37 14 C33.63035504 18.50987066 29.61144815 22.23718561 25.5 26.0625 C24.38988192 27.12742944 23.28178472 28.19446976 22.17578125 29.26367188 C19.47327796 31.86744097 16.74479324 34.44088022 14 37 C10.2636303 35.44178546 7.89003319 33.13418702 5.05078125 30.28125 C4.12072266 29.34925781 3.19066406 28.41726562 2.23242188 27.45703125 C1.75345459 26.97186035 1.2744873 26.48668945 0.78100586 25.98681641 C-0.68778598 24.49971045 -2.16448104 23.02082042 -3.64257812 21.54296875 C-11.85823853 13.27585327 -11.85823853 13.27585327 -12.3125 9.1875 C-11.92835642 5.2692355 -10.70743683 3.78706733 -8 1 C-5.13391871 -0.43304064 -3.18699217 -0.30644155 0 0 Z " fill="#FC806C" transform="translate(111,223)"/>
<path d="M0 0 C2.29586968 2.29586968 1.98607394 7.23096328 2.04272461 10.359375 C2.03764893 11.14828125 2.03257324 11.9371875 2.02734375 12.75 C2.023396 13.54921875 2.01944824 14.3484375 2.01538086 15.171875 C2.01030518 15.77515625 2.00522949 16.3784375 2 17 C1.3922876 17.0093457 0.7845752 17.01869141 0.15844727 17.02832031 C-10.20621644 17.2274718 -20.44539481 17.43471623 -30.5625 19.875 C-31.23273193 20.03645508 -31.90296387 20.19791016 -32.59350586 20.36425781 C-36.69304907 21.44349858 -40.22727069 23.10551613 -44 25 C-44.99 25 -45.98 25 -47 25 C-48.82421875 22.48046875 -48.82421875 22.48046875 -50.6875 19.1875 C-51.62142578 17.56908203 -51.62142578 17.56908203 -52.57421875 15.91796875 C-54 13 -54 13 -54 10 C-37.13129538 2.11742775 -18.61543347 -1.4576912 0 0 Z " fill="#AFD77B" transform="translate(132,132)"/>
<path d="M0 0 C19.25234661 -0.85565985 37.45387715 1.80087717 55 10 C54.31238981 13.65564909 52.74550455 16.51867272 50.9375 19.75 C50.38964844 20.73484375 49.84179688 21.7196875 49.27734375 22.734375 C48.64505859 23.85585937 48.64505859 23.85585937 48 25 C47.41734375 24.81824219 46.8346875 24.63648438 46.234375 24.44921875 C33.85835669 20.65468484 22.06841095 17.97242417 9.125 17.4375 C7.66320312 17.37272461 7.66320312 17.37272461 6.171875 17.30664062 C3.78137198 17.20117726 1.39077556 17.09905825 -1 17 C-1.12036664 11.22240116 -0.8320582 5.72040011 0 0 Z " fill="#C7CBD3" transform="translate(379,132)"/>
<path d="M0 0 C16.5 0 33 0 50 0 C50 5.61 50 11.22 50 17 C33.5 17 17 17 0 17 C0 11.39 0 5.78 0 0 Z " fill="#F1CE6B" transform="translate(74,479)"/>
<path d="M0 0 C16.17 0 32.34 0 49 0 C49 5.28 49 10.56 49 16 C32.83 16 16.66 16 0 16 C0 10.72 0 5.44 0 0 Z " fill="#FCD770" transform="translate(339,479)"/>
<path d="M0 0 C16.17 0 32.34 0 49 0 C49 5.28 49 10.56 49 16 C32.83 16 16.66 16 0 16 C0 10.72 0 5.44 0 0 Z " fill="#FFC729" transform="translate(207,479)"/>
<path d="M0 0 C16.17 0 32.34 0 49 0 C49 5.28 49 10.56 49 16 C32.83 16 16.66 16 0 16 C0 10.72 0 5.44 0 0 Z " fill="#FFC729" transform="translate(405,446)"/>
<path d="M0 0 C16.17 0 32.34 0 49 0 C49 5.28 49 10.56 49 16 C32.83 16 16.66 16 0 16 C0 10.72 0 5.44 0 0 Z " fill="#FFC729" transform="translate(273,413)"/>
<path d="M0 0 C16.17 0 32.34 0 49 0 C49 5.28 49 10.56 49 16 C32.83 16 16.66 16 0 16 C0 10.72 0 5.44 0 0 Z " fill="#FBD66F" transform="translate(141,413)"/>
<path d="M0 0 C16.17 0 32.34 0 49 0 C49 5.28 49 10.56 49 16 C32.83 16 16.66 16 0 16 C0 10.72 0 5.44 0 0 Z " fill="#FCD770" transform="translate(207,380)"/>
<path d="M0 0 C16.17 0 32.34 0 49 0 C49 5.28 49 10.56 49 16 C32.83 16 16.66 16 0 16 C0 10.72 0 5.44 0 0 Z " fill="#FFC729" transform="translate(207,347)"/>
<path d="M0 0 C0.10022461 0.64437012 0.20044922 1.28874023 0.30371094 1.95263672 C0.77371705 4.92880919 1.26174874 7.90176843 1.75 10.875 C1.90726562 11.88820312 2.06453125 12.90140625 2.2265625 13.9453125 C3.2324811 19.98082409 4.66423852 25.21638669 7.30175781 30.75048828 C8.17456024 33.56237694 7.89165379 35.21624345 7 38 C4.85546875 39.8359375 4.85546875 39.8359375 2.1875 41.375 C0.87845703 42.16003906 0.87845703 42.16003906 -0.45703125 42.9609375 C-3 44 -3 44 -5.1328125 44.09765625 C-8.19618667 42.2968024 -8.93652168 39.26509003 -10.0625 36.0625 C-10.31854004 35.35826904 -10.57458008 34.65403809 -10.83837891 33.9284668 C-14.07470929 24.53981261 -16.35370464 13.96268078 -16 4 C-13.89748139 3.32815382 -11.79292237 2.66269032 -9.6875 2 C-8.51574219 1.62875 -7.34398437 1.2575 -6.13671875 0.875 C-3 0 -3 0 0 0 Z " fill="#C7CCD4" transform="translate(297,241)"/>
<path d="M0 0 C5.28 1.32 10.56 2.64 16 4 C15.79621703 12.45699315 14.46139177 19.77413889 12.125 27.875 C11.86831543 28.76598389 11.61163086 29.65696777 11.34716797 30.57495117 C9.86332532 35.55016086 8.15032348 40.27443882 6 45 C4.22821947 44.043419 2.45760924 43.08467012 0.6875 42.125 C-0.29863281 41.59132813 -1.28476563 41.05765625 -2.30078125 40.5078125 C-5 39 -5 39 -8 37 C-7.43243455 33.03283333 -6.54961752 29.55074054 -5.125 25.8125 C-2.22650571 17.44494896 -1.20649063 8.73791698 0 0 Z " fill="#B0D97C" transform="translate(215,241)"/>
<path d="M0 0 C3.26253066 0.73805321 6.40899049 1.77434708 9.58544922 2.81542969 C16.1095091 4.9401061 22.11933404 6.52547131 29 7 C29.66 7.33 30.32 7.66 31 8 C31 13.28 31 18.56 31 24 C17.58810219 24.83824361 5.05025358 20.56867779 -7 15 C-5.79312667 11.10867945 -4.40730242 7.65478842 -2.375 4.125 C-1.92898437 3.34382813 -1.48296875 2.56265625 -1.0234375 1.7578125 C-0.68570313 1.17773438 -0.34796875 0.59765625 0 0 Z " fill="#C4C9D1" transform="translate(85,322)"/>
<path d="M0 0 C1.16091416 2.4034551 2.10963464 4.68439196 3 7.1875 C3.26055176 7.90349365 3.52110352 8.6194873 3.78955078 9.35717773 C7.01270453 18.49347815 9 27.25503468 9 37 C3.39 37 -2.22 37 -8 37 C-8.226875 35.164375 -8.45375 33.32875 -8.6875 31.4375 C-9.708451 24.64854849 -11.6636559 18.54787002 -13.9765625 12.1171875 C-15 9 -15 9 -15 6 C-12.48046875 4.140625 -12.48046875 4.140625 -9.1875 2.25 C-8.10855469 1.61578125 -7.02960938 0.9815625 -5.91796875 0.328125 C-3 -1 -3 -1 0 0 Z " fill="#F6C027" transform="translate(354,79)"/>
<path d="M0 0 C3.47004452 0.4448775 6.60475991 1.1761212 9.875 2.375 C16.71374042 4.76443942 23.88626357 5.74463475 31 7 C31 12.61 31 18.22 31 24 C17.41681145 23.32922526 5.14291533 20.15981568 -7 14 C-5.6926925 10.56068166 -4.18963666 7.38699095 -2.375 4.1875 C-1.92898437 3.39730469 -1.48296875 2.60710937 -1.0234375 1.79296875 C-0.68570313 1.20128906 -0.34796875 0.60960937 0 0 Z " fill="#F6C027" transform="translate(217,207)"/>
<path d="M0 0 C11.31930488 5.08052522 20.83177854 16.14369549 28 26 C26.93521458 29.10000819 26.04202519 29.97462191 23.1796875 31.703125 C21.54386719 32.46882813 21.54386719 32.46882813 19.875 33.25 C18.23144531 34.03117187 18.23144531 34.03117187 16.5546875 34.828125 C15.71164062 35.21484375 14.86859375 35.6015625 14 36 C12.85724609 34.7315625 12.85724609 34.7315625 11.69140625 33.4375 C5.76118366 26.9051999 -0.21649612 20.67004996 -7 15 C-6.31238981 11.34435091 -4.74550455 8.48132728 -2.9375 5.25 C-2.11572266 3.77273437 -2.11572266 3.77273437 -1.27734375 2.265625 C-0.64505859 1.14414063 -0.64505859 1.14414063 0 0 Z " fill="#AFD77B" transform="translate(448,151)"/>
<path d="M0 0 C1.17176518 2.12232979 2.33754785 4.24757791 3.5 6.375 C3.83386719 6.97828125 4.16773438 7.5815625 4.51171875 8.203125 C7 12.7734375 7 12.7734375 7 15 C-5.24383999 20.03793753 -17.56229696 24.82693557 -31 24 C-31 18.72 -31 13.44 -31 8 C-28.81375 7.608125 -26.6275 7.21625 -24.375 6.8125 C-17.53940812 5.51639486 -11.21925138 3.47381494 -4.73046875 0.98828125 C-2 0 -2 0 0 0 Z " fill="#AED67B" transform="translate(427,322)"/>
<path d="M0 0 C2.73686369 2.73686369 5.47239813 5.47245033 8.19140625 8.2265625 C9.31507226 9.35940665 10.43877062 10.49221871 11.5625 11.625 C12.12646484 12.19734375 12.69042969 12.7696875 13.27148438 13.359375 C16.04317074 16.14727006 18.75012181 18.75925269 22 21 C20.45454854 26.47932789 17.84456788 31.11429181 15 36 C4.08929512 31.10286967 -6.51142905 19.92002674 -13 10 C-13 9.01 -13 8.02 -13 7 C-8.71 4.69 -4.42 2.38 0 0 Z " fill="#AFD77B" transform="translate(49,292)"/>
<path d="M0 0 C1.921875 2.5546875 1.921875 2.5546875 3.75 5.875 C4.36359375 6.96554688 4.9771875 8.05609375 5.609375 9.1796875 C7 12 7 12 7 14 C-0.87387748 17.85344738 -8.47421382 20.59908615 -17.0625 22.375 C-17.87114502 22.54225586 -18.67979004 22.70951172 -19.51293945 22.88183594 C-23.51675197 23.66057601 -26.85305262 24 -31 24 C-31 18.39 -31 12.78 -31 7 C-29.63746094 6.74605469 -28.27492188 6.49210938 -26.87109375 6.23046875 C-25.05981594 5.88322896 -23.24862241 5.53554938 -21.4375 5.1875 C-20.09461914 4.9390332 -20.09461914 4.9390332 -18.72460938 4.68554688 C-14.657964 3.89605162 -10.88024273 3.08135324 -7.09765625 1.36328125 C-4 0 -4 0 0 0 Z " fill="#F7C127" transform="translate(295,207)"/>
<path d="M0 0 C4.97209562 1.76429199 9.43438061 4.3939166 14 7 C13.34323999 11.79882597 12.02751445 16.23486127 10.5 20.8125 C8.6277109 26.57705759 7.32611848 31.91245505 7 38 C1.39 38 -4.22 38 -10 38 C-9.54031758 24.66920968 -6.70241974 11.6671751 0 0 Z " fill="#F7C027" transform="translate(159,78)"/>
<path d="M0 0 C9.00927247 0 9.00927247 0 13.05859375 1.171875 C14.38020508 1.55085938 14.38020508 1.55085938 15.72851562 1.9375 C17.06946289 2.3396875 17.06946289 2.3396875 18.4375 2.75 C19.32759766 3.00265625 20.21769531 3.2553125 21.13476562 3.515625 C27.00880771 5.23192656 32.45760671 7.40640802 38 10 C35.69 14.62 33.38 19.24 31 24 C24.3926932 22.63297101 17.98395771 20.86225521 11.52734375 18.90234375 C7.30034635 17.74225106 7.30034635 17.74225106 0 17 C0 11.39 0 5.78 0 0 Z " fill="#F7C127" transform="translate(264,17)"/>
<path d="M0 0 C4.97209562 1.76429199 9.43438061 4.3939166 14 7 C13.49036597 11.29548685 10.78627385 14.04181726 8.0625 17.1875 C7.57394531 17.75831299 7.08539063 18.32912598 6.58203125 18.91723633 C1.33775376 24.93447031 -4.34117288 30.56078192 -11 35 C-12.9765625 34.95703125 -12.9765625 34.95703125 -15 34 C-16.7734375 31.63671875 -16.7734375 31.63671875 -18.375 28.6875 C-18.91898437 27.72199219 -19.46296875 26.75648438 -20.0234375 25.76171875 C-21 23 -21 23 -20.39453125 20.8515625 C-18.86105576 18.81551941 -17.28070274 17.30769047 -15.3125 15.6875 C-9.66921588 10.90453505 -4.47795297 5.91089792 0 0 Z " fill="#C7CCD3" transform="translate(462,292)"/>
<path d="M0 0 C1.22856207 2.07357305 2.43225346 4.15596754 3.625 6.25 C4.1509375 7.12978516 4.1509375 7.12978516 4.6875 8.02734375 C7.14960513 12.40989088 7.14960513 12.40989088 6.4375 15.21875 C4.87901455 17.14991675 3.29418932 18.67488845 1.375 20.25 C-2.99347041 23.94334316 -6.99565766 27.9199453 -11 32 C-12.33216834 33.33449731 -13.66519093 34.66814404 -15 36 C-17.00993521 34.9352129 -19.0077761 33.84756779 -21 32.75 C-22.11375 32.14671875 -23.2275 31.5434375 -24.375 30.921875 C-25.24125 30.28765625 -26.1075 29.6534375 -27 29 C-27 22.50650898 -22.3013482 18.56789412 -18 14 C-3.95545657 0 -3.95545657 0 0 0 Z " fill="#C7CBD3" transform="translate(64,151)"/>
<path d="M0 0 C0 5.61 0 11.22 0 17 C-2.536875 17.37125 -2.536875 17.37125 -5.125 17.75 C-11.19428197 18.75074756 -16.98649559 20.32357376 -22.87109375 22.09765625 C-25.57466096 22.87733668 -28.23358188 23.49842513 -31 24 C-32.19982444 22.07010782 -33.38452818 20.13080772 -34.5625 18.1875 C-35.55443359 16.56908203 -35.55443359 16.56908203 -36.56640625 14.91796875 C-38 12 -38 12 -37 9 C-26.29525753 2.86634582 -12.21665203 0 0 0 Z " fill="#F8C127" transform="translate(248,17)"/>
<path d="M0 0 C3.51455198 0.66358674 6.13808087 2.09523645 9.1875 3.9375 C10.06792969 4.46214844 10.94835937 4.98679687 11.85546875 5.52734375 C14 7 14 7 15 9 C12.68776839 12.01684656 10.34982916 15.01236007 8 18 C7.53335938 18.60714844 7.06671875 19.21429688 6.5859375 19.83984375 C1.4129146 26.26830788 -5.40796626 32.63170334 -13 36 C-14.20253816 34.09273249 -15.38658949 32.1737988 -16.5625 30.25 C-17.55443359 28.64898437 -17.55443359 28.64898437 -18.56640625 27.015625 C-20 24 -20 24 -20.06640625 21.93359375 C-18.42416778 18.95590862 -15.93034151 16.98407931 -13.375 14.8125 C-8.24698666 10.30678131 -3.93363665 5.60958748 0 0 Z " fill="#C7CCD4" transform="translate(197,292)"/>
<path d="M0 0 C6.93 3.96 6.93 3.96 14 8 C12.07352301 12.81619246 9.91602786 15.65942621 6.4375 19.3125 C5.9024585 19.88137939 5.36741699 20.45025879 4.81616211 21.03637695 C-7.08971048 33.56036735 -7.08971048 33.56036735 -14 36 C-15.20253816 34.09273249 -16.38658949 32.1737988 -17.5625 30.25 C-18.55443359 28.64898437 -18.55443359 28.64898437 -19.56640625 27.015625 C-21 24 -21 24 -21.02734375 21.86328125 C-19.52845691 19.14476785 -17.48401227 17.78325912 -15 15.9375 C-8.93160691 11.17797601 -4.71854365 6.11090079 0 0 Z " fill="#F9C228" transform="translate(330,176)"/>
<path d="M0 0 C5.61 0 11.22 0 17 0 C16.77210694 7.63441754 15.21058068 14.50537908 13.125 21.8125 C12.86831543 22.71959717 12.61163086 23.62669434 12.34716797 24.5612793 C10.94974408 29.32051333 9.39869666 33.65505546 7 38 C3.37723685 36.6744419 0.36494652 35.05653045 -2.8125 32.875 C-3.60269531 32.33617187 -4.39289063 31.79734375 -5.20703125 31.2421875 C-5.79871094 30.83226562 -6.39039063 30.42234375 -7 30 C-6.35509645 26.33003343 -5.33582329 22.99803529 -4.0625 19.5 C-1.8578443 13.05438842 -0.88005293 6.7470725 0 0 Z " fill="#F8C228" transform="translate(346,132)"/>
<path d="M0 0 C2.74003899 1.51332697 4.12788617 3.59310966 5.9921875 6.09375 C10.36211874 11.66341277 15.16371188 15.87569052 20.8671875 20.03125 C20.28895654 24.09350548 18.97601013 26.87887346 16.8046875 30.34375 C16.25683594 31.22675781 15.70898438 32.10976562 15.14453125 33.01953125 C14.72300781 33.68339844 14.30148438 34.34726563 13.8671875 35.03125 C9.15921908 33.57256591 6.05394417 30.80081021 2.5546875 27.46875 C1.98580811 26.9337085 1.41692871 26.39866699 0.83081055 25.84741211 C-11.69317985 13.94153952 -11.69317985 13.94153952 -14.1328125 7.03125 C-12.22554499 5.82871184 -10.3066113 4.64466051 -8.3828125 3.46875 C-7.31546875 2.80746094 -6.248125 2.14617187 -5.1484375 1.46484375 C-2.1328125 0.03125 -2.1328125 0.03125 0 0 Z " fill="#F9C228" transform="translate(182.1328125,176.96875)"/>
<path d="M0 0 C0.52843506 0.176521 1.05687012 0.35304199 1.60131836 0.53491211 C4.04376762 1.34497735 6.49050698 2.1412707 8.9375 2.9375 C9.76830078 3.21529297 10.59910156 3.49308594 11.45507812 3.77929688 C16.38668352 5.37199434 21.01602326 6.40697593 26.18969727 6.79125977 C28 7 28 7 30 8 C30 13.28 30 18.56 30 24 C16.19405943 23.72929528 4.72059216 20.20387861 -8 15 C-6.62712658 11.30123909 -4.93644547 8.0485524 -2.875 4.6875 C-2.33617187 3.80449219 -1.79734375 2.92148437 -1.2421875 2.01171875 C-0.83226562 1.34785156 -0.42234375 0.68398438 0 0 Z " fill="#C7CCD4" transform="translate(350,322)"/>
<path d="M0 0 C1.4453125 1.6875 1.4453125 1.6875 3.125 4 C8.00559102 10.45661521 13.5133477 16.13501078 20 21 C19.42176904 25.06225548 18.10882263 27.84762346 15.9375 31.3125 C15.38964844 32.19550781 14.84179688 33.07851563 14.27734375 33.98828125 C13.85582031 34.65214844 13.43429687 35.31601562 13 36 C7.29679179 33.09019989 3.36731046 29.6422501 -1 25 C-1.804375 24.21625 -2.60875 23.4325 -3.4375 22.625 C-13.59259259 12.22222222 -13.59259259 12.22222222 -15 8 C-13.58531689 7.03874097 -12.1681636 6.08111675 -10.75 5.125 C-9.96109375 4.59132813 -9.1721875 4.05765625 -8.359375 3.5078125 C-2.87046632 0 -2.87046632 0 0 0 Z " fill="#B0D87C" transform="translate(315,292)"/>
<path d="M0 0 C1.82421875 2.72265625 1.82421875 2.72265625 3.6875 6.0625 C4.31011719 7.16722656 4.93273437 8.27195312 5.57421875 9.41015625 C6.04472656 10.26480469 6.51523438 11.11945313 7 12 C3.49423262 15.97166634 -0.90096396 17.00157551 -5.8125 18.625 C-6.74924561 18.93767822 -7.68599121 19.25035645 -8.65112305 19.57250977 C-16.27444946 22.0021225 -22.96450631 22.91169787 -31 23 C-31 17.72 -31 12.44 -31 7 C-29.164375 6.608125 -27.32875 6.21625 -25.4375 5.8125 C-18.8028346 4.30495254 -12.51133664 2.20368519 -6.1171875 -0.109375 C-3 -1 -3 -1 0 0 Z " fill="#B0D87C" transform="translate(163,323)"/>
<path d="M0 0 C5.61 0 11.22 0 17 0 C17.226875 1.85625 17.45375 3.7125 17.6875 5.625 C18.66943268 12.21694511 20.58904374 17.83647194 23.07421875 24.00390625 C24 27 24 27 24.0234375 29.16796875 C22.37643331 32.11623198 19.85452789 33.15331105 16.9375 34.75 C15.28041016 35.67039062 15.28041016 35.67039062 13.58984375 36.609375 C12.30787109 37.29773438 12.30787109 37.29773438 11 38 C3.41474389 29.13583443 0 11.32220303 0 0 Z " fill="#F9C228" transform="translate(149,132)"/>
<path d="M0 0 C6.27226723 2.11675093 10.28497959 6.51498059 15 11 C15.7425 11.70125 16.485 12.4025 17.25 13.125 C21.37896111 17.12884108 24.89569562 21.1495244 28 26 C28 26.66 28 27.32 28 28 C25.48046875 29.7265625 25.48046875 29.7265625 22.1875 31.625 C21.10855469 32.25664063 20.02960938 32.88828125 18.91796875 33.5390625 C16 35 16 35 13 35 C11.37890625 33.19921875 11.37890625 33.19921875 9.5625 30.6875 C4.70836739 24.3453716 -1.01942522 19.24297056 -7 14 C-5.8335158 10.19529921 -4.55623932 6.95426001 -2.375 3.625 C-1.70597656 2.59246094 -1.70597656 2.59246094 -1.0234375 1.5390625 C-0.68570312 1.03117187 -0.34796875 0.52328125 0 0 Z " fill="#FAC328" transform="translate(316,36)"/>
<path d="M0 0 C6.93 3.96 6.93 3.96 14 8 C13.11982257 12.40088716 11.89912832 16.50519541 10.5 20.75 C8.63366321 26.53320137 7.32692277 31.89744162 7 38 C1.39 38 -4.22 38 -10 38 C-9.24485017 24.40730303 -6.07908025 12.15816051 0 0 Z " fill="#B0D87C" transform="translate(27,193)"/>
<path d="M0 0 C5.61 0 11.22 0 17 0 C17.4125 2.59875 17.825 5.1975 18.25 7.875 C19.26387073 13.97275808 20.59475338 19.42404225 23.328125 25.01953125 C24.18899718 27.55710216 24.17523541 28.58154035 23 31 C20.6015625 32.73828125 20.6015625 32.73828125 17.625 34.3125 C16.64789063 34.84488281 15.67078125 35.37726563 14.6640625 35.92578125 C12 37 12 37 9 36 C7.83801159 33.76377751 6.89392665 31.65464569 6 29.3125 C5.73944824 28.64347656 5.47889648 27.97445313 5.21044922 27.28515625 C1.83944334 18.31267281 0 9.63066814 0 0 Z " fill="#C7CCD4" transform="translate(17,248)"/>
<path d="M0 0 C7.86275096 10.48366794 11 25.06121441 11 38 C5.39 38 -0.22 38 -6 38 C-6.37125 35.15375 -6.37125 35.15375 -6.75 32.25 C-7.6301798 26.44967842 -9.09384844 21.16105033 -11.09765625 15.65625 C-12 13 -12 13 -13 8 C-8.71 5.36 -4.42 2.72 0 0 Z " fill="#C7CCD4" transform="translate(484,193)"/>
<path d="M0 0 C3.89759494 1.29919831 4.34898764 2.7744288 6.3125 6.3125 C7.14201172 7.76076172 7.14201172 7.76076172 7.98828125 9.23828125 C9 12 9 12 8.5625 13.9921875 C5.79780405 17.5448218 2.34367535 20.3701457 -1.03710938 23.31445312 C-5.03133476 26.877614 -8.02171589 30.54654328 -11 35 C-15.06225548 34.42176904 -17.84762346 33.10882263 -21.3125 30.9375 C-22.19550781 30.38964844 -23.07851562 29.84179688 -23.98828125 29.27734375 C-24.65214844 28.85582031 -25.31601563 28.43429688 -26 28 C-22.57846787 17.3874512 -10.38538612 8.05437245 -2 1 C-1.34 0.67 -0.68 0.34 0 0 Z " fill="#FAC328" transform="translate(194,36)"/>
<path d="M0 0 C5.61 0 11.22 0 17 0 C17 5.38060493 16.64359685 9.55281385 15.3125 14.625 C15.13533447 15.31215088 14.95816895 15.99930176 14.77563477 16.70727539 C13.03010562 23.25093436 11.14891224 29.98844027 8 36 C5 37 5 37 2.08203125 35.56640625 C1.00308594 34.90511719 -0.07585937 34.24382812 -1.1875 33.5625 C-2.27417969 32.90378906 -3.36085938 32.24507813 -4.48046875 31.56640625 C-5.31191406 31.04949219 -6.14335937 30.53257812 -7 30 C-6.35509645 26.33003343 -5.33582329 22.99803529 -4.0625 19.5 C-1.8578443 13.05438842 -0.88005293 6.7470725 0 0 Z " fill="#B0D87C" transform="translate(478,248)"/>
<path d="M0 0 C5.61 0 11.22 0 17 0 C17 5.61 17 11.22 17 17 C11.39 17 5.78 17 0 17 C0 11.39 0 5.78 0 0 Z " fill="#EDCA69" transform="translate(173,479)"/>
<path d="M0 0 C5.61 0 11.22 0 17 0 C17 5.61 17 11.22 17 17 C11.39 17 5.78 17 0 17 C0 11.39 0 5.78 0 0 Z " fill="#EFBB26" transform="translate(140,479)"/>
<path d="M0 0 C5.61 0 11.22 0 17 0 C17 5.61 17 11.22 17 17 C11.39 17 5.78 17 0 17 C0 11.39 0 5.78 0 0 Z " fill="#EDCA69" transform="translate(173,446)"/>
<path d="M0 0 C5.61 0 11.22 0 17 0 C17 5.61 17 11.22 17 17 C11.39 17 5.78 17 0 17 C0 11.39 0 5.78 0 0 Z " fill="#EFBB26" transform="translate(140,446)"/>
<path d="M0 0 C5.61 0 11.22 0 17 0 C17 5.61 17 11.22 17 17 C11.39 17 5.78 17 0 17 C0 11.39 0 5.78 0 0 Z " fill="#EDCA69" transform="translate(107,446)"/>
<path d="M0 0 C5.61 0 11.22 0 17 0 C17 5.61 17 11.22 17 17 C11.39 17 5.78 17 0 17 C0 11.39 0 5.78 0 0 Z " fill="#EFBB26" transform="translate(74,446)"/>
<path d="M0 0 C5.61 0 11.22 0 17 0 C17 5.61 17 11.22 17 17 C11.39 17 5.78 17 0 17 C0 11.39 0 5.78 0 0 Z " fill="#EEBA26" transform="translate(107,413)"/>
<path d="M0 0 C5.61 0 11.22 0 17 0 C17 5.61 17 11.22 17 17 C11.39 17 5.78 17 0 17 C0 11.39 0 5.78 0 0 Z " fill="#ECC968" transform="translate(74,413)"/>
<path d="M0 0 C5.28 0 10.56 0 16 0 C16 5.28 16 10.56 16 16 C10.72 16 5.44 16 0 16 C0 10.72 0 5.44 0 0 Z " fill="#FCD770" transform="translate(438,479)"/>
<path d="M0 0 C5.28 0 10.56 0 16 0 C16 5.28 16 10.56 16 16 C10.72 16 5.44 16 0 16 C0 10.72 0 5.44 0 0 Z " fill="#FFC729" transform="translate(405,479)"/>
<path d="M0 0 C5.28 0 10.56 0 16 0 C16 5.28 16 10.56 16 16 C10.72 16 5.44 16 0 16 C0 10.72 0 5.44 0 0 Z " fill="#FFC729" transform="translate(306,479)"/>
<path d="M0 0 C5.28 0 10.56 0 16 0 C16 5.28 16 10.56 16 16 C10.72 16 5.44 16 0 16 C0 10.72 0 5.44 0 0 Z " fill="#FCD770" transform="translate(273,479)"/>
<path d="M0 0 C5.28 0 10.56 0 16 0 C16 5.28 16 10.56 16 16 C10.72 16 5.44 16 0 16 C0 10.72 0 5.44 0 0 Z " fill="#FCD770" transform="translate(372,446)"/>
<path d="M0 0 C5.28 0 10.56 0 16 0 C16 5.28 16 10.56 16 16 C10.72 16 5.44 16 0 16 C0 10.72 0 5.44 0 0 Z " fill="#FFC729" transform="translate(339,446)"/>
<path d="M0 0 C5.28 0 10.56 0 16 0 C16 5.28 16 10.56 16 16 C10.72 16 5.44 16 0 16 C0 10.72 0 5.44 0 0 Z " fill="#FCD770" transform="translate(306,446)"/>
<path d="M0 0 C5.28 0 10.56 0 16 0 C16 5.28 16 10.56 16 16 C10.72 16 5.44 16 0 16 C0 10.72 0 5.44 0 0 Z " fill="#FFC729" transform="translate(273,446)"/>
<path d="M0 0 C5.28 0 10.56 0 16 0 C16 5.28 16 10.56 16 16 C10.72 16 5.44 16 0 16 C0 10.72 0 5.44 0 0 Z " fill="#FCD770" transform="translate(240,446)"/>
<path d="M0 0 C5.28 0 10.56 0 16 0 C16 5.28 16 10.56 16 16 C10.72 16 5.44 16 0 16 C0 10.72 0 5.44 0 0 Z " fill="#FEC628" transform="translate(207,446)"/>
<path d="M0 0 C5.28 0 10.56 0 16 0 C16 5.28 16 10.56 16 16 C10.72 16 5.44 16 0 16 C0 10.72 0 5.44 0 0 Z " fill="#FCD770" transform="translate(240,413)"/>
<path d="M0 0 C5.28 0 10.56 0 16 0 C16 5.28 16 10.56 16 16 C10.72 16 5.44 16 0 16 C0 10.72 0 5.44 0 0 Z " fill="#FEC628" transform="translate(207,413)"/>
<path d="M0 0 C5.28 0 10.56 0 16 0 C16 5.28 16 10.56 16 16 C10.72 16 5.44 16 0 16 C0 10.72 0 5.44 0 0 Z " fill="#FCD770" transform="translate(306,380)"/>
<path d="M0 0 C5.28 0 10.56 0 16 0 C16 5.28 16 10.56 16 16 C10.72 16 5.44 16 0 16 C0 10.72 0 5.44 0 0 Z " fill="#FFC729" transform="translate(273,380)"/>
<path d="M0 0 C5.28 0 10.56 0 16 0 C16 5.28 16 10.56 16 16 C10.72 16 5.44 16 0 16 C0 10.72 0 5.44 0 0 Z " fill="#FFC729" transform="translate(306,347)"/>
<path d="M0 0 C5.28 0 10.56 0 16 0 C16 5.28 16 10.56 16 16 C10.72 16 5.44 16 0 16 C0 10.72 0 5.44 0 0 Z " fill="#FCD770" transform="translate(273,347)"/>
</svg>
